# MagicaVoxel @ Ephtracy

# material
mtllib fireball.mtl
usemtl palette

# normals
vn -1 0 0
vn 1 0 0
vn 0 0 1
vn 0 0 -1
vn 0 -1 0
vn 0 1 0

# texcoords
vt 0.0410156 0.5
vt 0.0449219 0.5
vt 0.0683594 0.5

# verts
v -5 0 5
v -5 0 3
v -5 0 -5
v -5 1 5
v -5 1 4
v -5 1 3
v -5 1 2
v -5 1 1
v -5 1 -4
v -5 2 4
v -5 2 2
v -5 2 1
v -5 2 -0
v -5 2 -4
v -5 2 -5
v -5 3 5
v -5 3 4
v -5 3 3
v -5 3 2
v -5 3 1
v -5 3 -0
v -5 3 -4
v -5 3 -5
v -5 4 5
v -5 4 4
v -5 4 3
v -5 4 1
v -5 4 -0
v -5 4 -1
v -5 4 -4
v -5 4 -5
v -5 5 5
v -5 5 3
v -5 5 2
v -5 5 1
v -5 5 -0
v -5 5 -1
v -5 5 -3
v -5 5 -4
v -5 5 -5
v -5 6 2
v -5 6 -0
v -5 6 -1
v -5 6 -2
v -5 6 -3
v -5 6 -5
v -5 7 5
v -5 7 3
v -5 7 -0
v -5 7 -1
v -5 7 -2
v -5 7 -4
v -5 8 4
v -5 8 3
v -5 8 2
v -5 8 -0
v -5 8 -1
v -5 8 -3
v -5 9 5
v -5 9 4
v -5 9 2
v -5 9 -1
v -5 9 -3
v -5 9 -4
v -5 10 5
v -5 10 -1
v -5 10 -5
v 5 0 5
v 5 0 3
v 5 0 -5
v 5 1 5
v 5 1 4
v 5 1 3
v 5 1 2
v 5 1 -0
v 5 1 -4
v 5 2 4
v 5 2 3
v 5 2 2
v 5 2 1
v 5 2 -0
v 5 2 -1
v 5 2 -4
v 5 2 -5
v 5 3 5
v 5 3 3
v 5 3 2
v 5 3 1
v 5 4 3
v 5 4 1
v 5 4 -1
v 5 4 -2
v 5 4 -4
v 5 4 -5
v 5 5 3
v 5 5 1
v 5 5 -0
v 5 5 -1
v 5 5 -2
v 5 5 -3
v 5 5 -4
v 5 6 5
v 5 6 4
v 5 6 -0
v 5 6 -2
v 5 6 -3
v 5 6 -5
v 5 7 4
v 5 7 3
v 5 7 -0
v 5 7 -2
v 5 7 -4
v 5 8 4
v 5 8 3
v 5 8 2
v 5 8 -0
v 5 8 -3
v 5 8 -4
v 5 9 5
v 5 9 4
v 5 9 2
v 5 9 -0
v 5 9 -1
v 5 9 -3
v 5 9 -4
v 5 10 5
v 5 10 -1
v 5 10 -5
v -5 0 5
v -5 1 5
v -5 3 5
v -5 4 5
v -5 5 5
v -5 7 5
v -5 9 5
v -5 10 5
v -4 0 5
v -4 1 5
v -4 2 5
v -4 3 5
v -4 4 5
v -4 5 5
v -4 6 5
v -4 7 5
v -4 8 5
v -4 9 5
v -4 10 5
v -3 2 5
v -3 3 5
v -3 6 5
v -3 8 5
v -2 3 5
v -2 4 5
v -2 5 5
v -2 6 5
v -2 7 5
v -2 8 5
v -2 9 5
v -1 0 5
v -1 1 5
v -1 3 5
v -1 5 5
v -1 6 5
v -1 7 5
v -1 8 5
v -1 9 5
v -1 10 5
v 0 2 5
v 0 3 5
v 0 6 5
v 0 7 5
v 0 8 5
v 1 0 5
v 1 1 5
v 1 2 5
v 1 5 5
v 1 6 5
v 1 7 5
v 1 8 5
v 1 9 5
v 1 10 5
v 2 3 5
v 2 4 5
v 2 5 5
v 2 7 5
v 2 9 5
v 3 2 5
v 3 3 5
v 3 6 5
v 3 8 5
v 4 0 5
v 4 1 5
v 4 2 5
v 4 3 5
v 4 4 5
v 4 5 5
v 4 8 5
v 4 9 5
v 4 10 5
v 5 0 5
v 5 1 5
v 5 3 5
v 5 6 5
v 5 9 5
v 5 10 5
v -5 0 -5
v -5 2 -5
v -5 3 -5
v -5 4 -5
v -5 5 -5
v -5 6 -5
v -5 10 -5
v -4 2 -5
v -4 3 -5
v -4 9 -5
v -4 10 -5
v -3 2 -5
v -3 3 -5
v -3 5 -5
v -3 6 -5
v -3 8 -5
v -3 9 -5
v -3 10 -5
v -2 0 -5
v -2 1 -5
v -2 3 -5
v -2 4 -5
v -2 5 -5
v -2 7 -5
v -2 8 -5
v -2 9 -5
v -2 10 -5
v -1 1 -5
v -1 2 -5
v -1 6 -5
v -1 7 -5
v -1 8 -5
v -1 9 -5
v -1 10 -5
v 0 6 -5
v 0 7 -5
v 0 8 -5
v 1 1 -5
v 1 2 -5
v 1 6 -5
v 1 7 -5
v 1 8 -5
v 1 10 -5
v 2 0 -5
v 2 1 -5
v 2 3 -5
v 2 4 -5
v 2 5 -5
v 2 7 -5
v 2 8 -5
v 2 9 -5
v 2 10 -5
v 3 2 -5
v 3 3 -5
v 3 4 -5
v 3 5 -5
v 3 6 -5
v 3 8 -5
v 3 9 -5
v 3 10 -5
v 4 3 -5
v 4 4 -5
v 4 5 -5
v 4 6 -5
v 4 9 -5
v 4 10 -5
v 5 0 -5
v 5 2 -5
v 5 4 -5
v 5 6 -5
v 5 10 -5
v -5 0 5
v -4 0 5
v -1 0 5
v 1 0 5
v 4 0 5
v 5 0 5
v -4 0 4
v -3 0 4
v -2 0 4
v -1 0 4
v 0 0 4
v 2 0 4
v 3 0 4
v 4 0 4
v -5 0 3
v -4 0 3
v -3 0 3
v -2 0 3
v -1 0 3
v 0 0 3
v 2 0 3
v 3 0 3
v 4 0 3
v 5 0 3
v -4 0 2
v -3 0 2
v -2 0 2
v -1 0 2
v 0 0 2
v 1 0 2
v 2 0 2
v 3 0 2
v 4 0 2
v -3 0 1
v -2 0 1
v 0 0 1
v 1 0 1
v 2 0 1
v 3 0 1
v -3 0 -0
v -1 0 -0
v 1 0 -0
v 2 0 -0
v -4 0 -1
v -3 0 -1
v -2 0 -1
v -1 0 -1
v 2 0 -1
v 3 0 -1
v 4 0 -1
v -4 0 -2
v -3 0 -2
v -2 0 -2
v -1 0 -2
v 1 0 -2
v 2 0 -2
v 3 0 -2
v 4 0 -2
v -3 0 -3
v -2 0 -3
v 0 0 -3
v 1 0 -3
v 2 0 -3
v 3 0 -3
v -3 0 -4
v -2 0 -4
v -1 0 -4
v 0 0 -4
v 2 0 -4
v 3 0 -4
v -5 0 -5
v -2 0 -5
v 2 0 -5
v 5 0 -5
v -5 10 5
v -4 10 5
v -1 10 5
v 1 10 5
v 4 10 5
v 5 10 5
v -4 10 4
v -3 10 4
v -2 10 4
v -1 10 4
v 0 10 4
v 1 10 4
v 2 10 4
v 3 10 4
v 4 10 4
v -1 10 3
v 0 10 3
v 1 10 3
v 2 10 3
v 3 10 3
v 4 10 3
v -4 10 2
v -3 10 2
v -2 10 2
v -1 10 2
v 0 10 2
v 1 10 2
v 2 10 2
v 3 10 2
v 4 10 2
v -3 10 1
v -2 10 1
v -1 10 1
v 0 10 1
v 1 10 1
v 2 10 1
v 3 10 1
v -1 10 -0
v 0 10 -0
v 1 10 -0
v 2 10 -0
v -5 10 -1
v -4 10 -1
v -2 10 -1
v -1 10 -1
v 1 10 -1
v 2 10 -1
v 3 10 -1
v 4 10 -1
v 5 10 -1
v -4 10 -2
v -3 10 -2
v -2 10 -2
v -1 10 -2
v 0 10 -2
v 1 10 -2
v 2 10 -2
v 3 10 -2
v 4 10 -2
v -4 10 -3
v -3 10 -3
v -2 10 -3
v -1 10 -3
v 0 10 -3
v 1 10 -3
v 2 10 -3
v 3 10 -3
v -2 10 -4
v -1 10 -4
v 0 10 -4
v 1 10 -4
v 2 10 -4
v -5 10 -5
v -4 10 -5
v -3 10 -5
v -2 10 -5
v -1 10 -5
v 1 10 -5
v 2 10 -5
v 3 10 -5
v 4 10 -5
v 5 10 -5

# faces
f 4/1/1 2/1/1 1/1/1
f 5/1/1 2/1/1 4/1/1
f 6/3/1 3/3/1 2/3/1
f 6/1/1 2/1/1 5/1/1
f 7/3/1 3/3/1 6/3/1
f 8/3/1 3/3/1 7/3/1
f 9/3/1 3/3/1 8/3/1
f 10/3/1 5/3/1 4/3/1
f 10/2/1 6/2/1 5/2/1
f 10/2/1 7/2/1 6/2/1
f 11/1/1 8/1/1 7/1/1
f 11/2/1 7/2/1 10/2/1
f 12/2/1 9/2/1 8/2/1
f 12/1/1 8/1/1 11/1/1
f 13/2/1 9/2/1 12/2/1
f 14/3/1 3/3/1 9/3/1
f 14/2/1 9/2/1 13/2/1
f 15/3/1 3/3/1 14/3/1
f 16/3/1 11/3/1 10/3/1
f 16/3/1 10/3/1 4/3/1
f 17/3/1 11/3/1 16/3/1
f 18/3/1 11/3/1 17/3/1
f 19/2/1 12/2/1 11/2/1
f 19/3/1 11/3/1 18/3/1
f 20/1/1 13/1/1 12/1/1
f 20/2/1 12/2/1 19/2/1
f 21/2/1 14/2/1 13/2/1
f 21/1/1 13/1/1 20/1/1
f 22/1/1 15/1/1 14/1/1
f 22/2/1 14/2/1 21/2/1
f 23/1/1 15/1/1 22/1/1
f 24/1/1 17/1/1 16/1/1
f 25/2/1 18/2/1 17/2/1
f 25/1/1 17/1/1 24/1/1
f 26/3/1 19/3/1 18/3/1
f 26/2/1 18/2/1 25/2/1
f 26/3/1 20/3/1 19/3/1
f 27/2/1 21/2/1 20/2/1
f 27/3/1 20/3/1 26/3/1
f 28/1/1 22/1/1 21/1/1
f 28/2/1 21/2/1 27/2/1
f 29/1/1 22/1/1 28/1/1
f 30/2/1 23/2/1 22/2/1
f 30/1/1 22/1/1 29/1/1
f 31/2/1 23/2/1 30/2/1
f 32/2/1 25/2/1 24/2/1
f 32/2/1 26/2/1 25/2/1
f 33/1/1 27/1/1 26/1/1
f 33/2/1 26/2/1 32/2/1
f 34/1/1 27/1/1 33/1/1
f 35/3/1 29/3/1 28/3/1
f 35/1/1 27/1/1 34/1/1
f 35/3/1 28/3/1 27/3/1
f 36/3/1 29/3/1 35/3/1
f 37/2/1 30/2/1 29/2/1
f 37/3/1 29/3/1 36/3/1
f 38/2/1 30/2/1 37/2/1
f 39/1/1 31/1/1 30/1/1
f 39/2/1 30/2/1 38/2/1
f 40/1/1 31/1/1 39/1/1
f 41/1/1 34/1/1 33/1/1
f 41/1/1 33/1/1 32/1/1
f 41/2/1 36/2/1 35/2/1
f 41/2/1 35/2/1 34/2/1
f 42/3/1 38/3/1 37/3/1
f 42/2/1 36/2/1 41/2/1
f 42/3/1 37/3/1 36/3/1
f 43/3/1 38/3/1 42/3/1
f 44/3/1 38/3/1 43/3/1
f 45/2/1 40/2/1 39/2/1
f 45/3/1 38/3/1 44/3/1
f 45/2/1 39/2/1 38/2/1
f 46/2/1 40/2/1 45/2/1
f 47/1/1 41/1/1 32/1/1
f 47/1/1 43/1/1 42/1/1
f 47/1/1 42/1/1 41/1/1
f 48/1/1 43/1/1 47/1/1
f 49/1/1 43/1/1 48/1/1
f 50/2/1 44/2/1 43/2/1
f 50/1/1 43/1/1 49/1/1
f 51/3/1 46/3/1 45/3/1
f 51/2/1 44/2/1 50/2/1
f 51/3/1 45/3/1 44/3/1
f 52/3/1 46/3/1 51/3/1
f 53/2/1 48/2/1 47/2/1
f 54/3/1 49/3/1 48/3/1
f 54/2/1 48/2/1 53/2/1
f 55/3/1 49/3/1 54/3/1
f 56/2/1 50/2/1 49/2/1
f 56/3/1 49/3/1 55/3/1
f 57/1/1 51/1/1 50/1/1
f 57/2/1 50/2/1 56/2/1
f 57/1/1 52/1/1 51/1/1
f 58/1/1 52/1/1 57/1/1
f 59/2/1 53/2/1 47/2/1
f 60/3/1 55/3/1 54/3/1
f 60/2/1 53/2/1 59/2/1
f 60/3/1 54/3/1 53/3/1
f 61/2/1 56/2/1 55/2/1
f 61/3/1 55/3/1 60/3/1
f 61/2/1 58/2/1 57/2/1
f 61/2/1 57/2/1 56/2/1
f 62/2/1 58/2/1 61/2/1
f 63/1/1 52/1/1 58/1/1
f 63/2/1 58/2/1 62/2/1
f 64/3/1 46/3/1 52/3/1
f 64/1/1 52/1/1 63/1/1
f 65/1/1 62/1/1 61/1/1
f 65/1/1 60/1/1 59/1/1
f 65/1/1 61/1/1 60/1/1
f 66/3/1 63/3/1 62/3/1
f 66/1/1 62/1/1 65/1/1
f 66/3/1 64/3/1 63/3/1
f 67/3/1 46/3/1 64/3/1
f 67/3/1 64/3/1 66/3/1
f 68/1/2 69/1/2 71/1/2
f 71/1/2 69/1/2 72/1/2
f 69/3/2 70/3/2 73/3/2
f 72/1/2 69/1/2 73/1/2
f 73/3/2 70/3/2 74/3/2
f 74/3/2 70/3/2 75/3/2
f 75/3/2 70/3/2 76/3/2
f 71/3/2 72/3/2 77/3/2
f 72/1/2 73/1/2 77/1/2
f 73/2/2 74/2/2 78/2/2
f 77/1/2 73/1/2 78/1/2
f 74/1/2 75/1/2 79/1/2
f 78/2/2 74/2/2 79/2/2
f 79/1/2 75/1/2 80/1/2
f 75/2/2 76/2/2 81/2/2
f 80/1/2 75/1/2 81/1/2
f 81/2/2 76/2/2 82/2/2
f 76/3/2 70/3/2 83/3/2
f 82/2/2 76/2/2 83/2/2
f 83/3/2 70/3/2 84/3/2
f 71/3/2 77/3/2 85/3/2
f 77/3/2 78/3/2 85/3/2
f 78/3/2 79/3/2 85/3/2
f 85/3/2 79/3/2 86/3/2
f 79/2/2 80/2/2 87/2/2
f 86/3/2 79/3/2 87/3/2
f 81/1/2 82/1/2 88/1/2
f 87/2/2 80/2/2 88/2/2
f 80/1/2 81/1/2 88/1/2
f 86/3/2 87/3/2 89/3/2
f 85/1/2 86/1/2 89/1/2
f 87/3/2 88/3/2 89/3/2
f 88/1/2 82/1/2 90/1/2
f 89/3/2 88/3/2 90/3/2
f 83/2/2 84/2/2 91/2/2
f 90/1/2 82/1/2 91/1/2
f 82/2/2 83/2/2 91/2/2
f 91/2/2 84/2/2 92/2/2
f 92/2/2 84/2/2 93/2/2
f 93/2/2 84/2/2 94/2/2
f 85/1/2 89/1/2 95/1/2
f 89/2/2 90/2/2 95/2/2
f 90/3/2 91/3/2 96/3/2
f 95/2/2 90/2/2 96/2/2
f 96/3/2 91/3/2 97/3/2
f 91/1/2 92/1/2 98/1/2
f 97/3/2 91/3/2 98/3/2
f 92/2/2 93/2/2 99/2/2
f 98/1/2 92/1/2 99/1/2
f 99/2/2 93/2/2 100/2/2
f 93/1/2 94/1/2 101/1/2
f 100/2/2 93/2/2 101/2/2
f 85/1/2 95/1/2 102/1/2
f 96/1/2 97/1/2 102/1/2
f 95/1/2 96/1/2 102/1/2
f 102/1/2 97/1/2 103/1/2
f 99/3/2 100/3/2 104/3/2
f 103/1/2 97/1/2 104/1/2
f 97/3/2 98/3/2 104/3/2
f 98/3/2 99/3/2 104/3/2
f 104/3/2 100/3/2 105/3/2
f 100/1/2 101/1/2 106/1/2
f 105/3/2 100/3/2 106/3/2
f 101/1/2 94/1/2 107/1/2
f 106/1/2 101/1/2 107/1/2
f 102/2/2 103/2/2 108/2/2
f 104/1/2 105/1/2 108/1/2
f 103/1/2 104/1/2 108/1/2
f 108/1/2 105/1/2 109/1/2
f 109/1/2 105/1/2 110/1/2
f 105/3/2 106/3/2 111/3/2
f 110/1/2 105/1/2 111/1/2
f 106/3/2 107/3/2 111/3/2
f 111/3/2 107/3/2 112/3/2
f 108/2/2 109/2/2 113/2/2
f 102/2/2 108/2/2 113/2/2
f 109/3/2 110/3/2 114/3/2
f 113/2/2 109/2/2 114/2/2
f 114/3/2 110/3/2 115/3/2
f 111/1/2 112/1/2 116/1/2
f 115/3/2 110/3/2 116/3/2
f 110/1/2 111/1/2 116/1/2
f 116/1/2 112/1/2 117/1/2
f 112/3/2 107/3/2 118/3/2
f 117/1/2 112/1/2 118/1/2
f 102/2/2 113/2/2 119/2/2
f 114/3/2 115/3/2 120/3/2
f 119/2/2 113/2/2 120/2/2
f 113/3/2 114/3/2 120/3/2
f 115/2/2 116/2/2 121/2/2
f 120/3/2 115/3/2 121/3/2
f 116/1/2 117/1/2 122/1/2
f 121/2/2 116/2/2 122/2/2
f 122/1/2 117/1/2 123/1/2
f 117/2/2 118/2/2 124/2/2
f 123/1/2 117/1/2 124/1/2
f 118/3/2 107/3/2 125/3/2
f 124/2/2 118/2/2 125/2/2
f 120/1/2 121/1/2 126/1/2
f 122/1/2 123/1/2 126/1/2
f 119/1/2 120/1/2 126/1/2
f 121/1/2 122/1/2 126/1/2
f 123/3/2 124/3/2 127/3/2
f 126/1/2 123/1/2 127/1/2
f 124/3/2 125/3/2 127/3/2
f 125/3/2 107/3/2 128/3/2
f 127/3/2 125/3/2 128/3/2
f 137/1/3 130/1/3 129/1/3
f 138/3/3 131/3/3 130/3/3
f 138/1/3 130/1/3 137/1/3
f 139/3/3 131/3/3 138/3/3
f 140/1/3 132/1/3 131/1/3
f 140/3/3 131/3/3 139/3/3
f 141/2/3 133/2/3 132/2/3
f 141/1/3 132/1/3 140/1/3
f 142/1/3 134/1/3 133/1/3
f 142/2/3 133/2/3 141/2/3
f 143/1/3 134/1/3 142/1/3
f 144/2/3 135/2/3 134/2/3
f 144/1/3 134/1/3 143/1/3
f 145/2/3 135/2/3 144/2/3
f 146/1/3 136/1/3 135/1/3
f 146/2/3 135/2/3 145/2/3
f 147/1/3 136/1/3 146/1/3
f 148/2/3 139/2/3 138/2/3
f 148/3/3 140/3/3 139/3/3
f 148/3/3 141/3/3 140/3/3
f 149/3/3 141/3/3 148/3/3
f 150/2/3 145/2/3 144/2/3
f 150/1/3 143/1/3 142/1/3
f 150/1/3 142/1/3 141/1/3
f 150/2/3 144/2/3 143/2/3
f 151/3/3 147/3/3 146/3/3
f 151/2/3 145/2/3 150/2/3
f 151/3/3 146/3/3 145/3/3
f 152/3/3 141/3/3 149/3/3
f 152/2/3 149/2/3 148/2/3
f 153/1/3 150/1/3 141/1/3
f 153/3/3 141/3/3 152/3/3
f 154/1/3 150/1/3 153/1/3
f 155/3/3 151/3/3 150/3/3
f 155/1/3 150/1/3 154/1/3
f 156/3/3 151/3/3 155/3/3
f 157/3/3 147/3/3 151/3/3
f 157/3/3 151/3/3 156/3/3
f 158/3/3 147/3/3 157/3/3
f 159/3/3 138/3/3 137/3/3
f 160/2/3 152/2/3 148/2/3
f 160/3/3 138/3/3 159/3/3
f 160/2/3 148/2/3 138/2/3
f 161/1/3 153/1/3 152/1/3
f 161/2/3 152/2/3 160/2/3
f 162/3/3 154/3/3 153/3/3
f 162/2/3 155/2/3 154/2/3
f 163/3/3 156/3/3 155/3/3
f 163/2/3 155/2/3 162/2/3
f 164/2/3 157/2/3 156/2/3
f 164/3/3 156/3/3 163/3/3
f 165/1/3 158/1/3 157/1/3
f 165/2/3 157/2/3 164/2/3
f 166/3/3 147/3/3 158/3/3
f 166/1/3 158/1/3 165/1/3
f 167/3/3 147/3/3 166/3/3
f 168/1/3 160/1/3 159/1/3
f 168/1/3 161/1/3 160/1/3
f 169/1/3 153/1/3 161/1/3
f 169/1/3 161/1/3 168/1/3
f 170/2/3 164/2/3 163/2/3
f 170/3/3 163/3/3 162/3/3
f 171/1/3 165/1/3 164/1/3
f 171/2/3 164/2/3 170/2/3
f 172/3/3 166/3/3 165/3/3
f 172/1/3 165/1/3 171/1/3
f 173/1/3 168/1/3 159/1/3
f 174/1/3 168/1/3 173/1/3
f 175/2/3 169/2/3 168/2/3
f 175/1/3 168/1/3 174/1/3
f 176/3/3 162/3/3 153/3/3
f 176/3/3 170/3/3 162/3/3
f 177/1/3 171/1/3 170/1/3
f 177/3/3 170/3/3 176/3/3
f 178/2/3 172/2/3 171/2/3
f 178/1/3 171/1/3 177/1/3
f 179/3/3 166/3/3 172/3/3
f 179/2/3 172/2/3 178/2/3
f 180/1/3 167/1/3 166/1/3
f 180/3/3 166/3/3 179/3/3
f 181/1/3 167/1/3 180/1/3
f 182/2/3 169/2/3 175/2/3
f 182/1/3 153/1/3 169/1/3
f 182/2/3 175/2/3 174/2/3
f 183/3/3 176/3/3 153/3/3
f 183/1/3 153/1/3 182/1/3
f 184/1/3 177/1/3 176/1/3
f 184/3/3 176/3/3 183/3/3
f 185/3/3 178/3/3 177/3/3
f 185/2/3 180/2/3 179/2/3
f 185/2/3 179/2/3 178/2/3
f 186/3/3 181/3/3 180/3/3
f 186/2/3 180/2/3 185/2/3
f 187/2/3 182/2/3 174/2/3
f 188/3/3 183/3/3 182/3/3
f 188/2/3 182/2/3 187/2/3
f 189/3/3 185/3/3 177/3/3
f 189/1/3 177/1/3 184/1/3
f 189/3/3 186/3/3 185/3/3
f 190/3/3 186/3/3 189/3/3
f 191/3/3 174/3/3 173/3/3
f 192/2/3 187/2/3 174/2/3
f 192/3/3 174/3/3 191/3/3
f 193/3/3 188/3/3 187/3/3
f 193/2/3 187/2/3 192/2/3
f 194/3/3 183/3/3 188/3/3
f 194/3/3 188/3/3 193/3/3
f 195/2/3 184/2/3 183/2/3
f 195/3/3 183/3/3 194/3/3
f 196/1/3 189/1/3 184/1/3
f 196/2/3 184/2/3 195/2/3
f 197/3/3 186/3/3 190/3/3
f 197/2/3 190/2/3 189/2/3
f 198/3/3 181/3/3 186/3/3
f 198/3/3 186/3/3 197/3/3
f 199/3/3 181/3/3 198/3/3
f 200/1/3 192/1/3 191/1/3
f 201/3/3 193/3/3 192/3/3
f 201/1/3 192/1/3 200/1/3
f 201/3/3 194/3/3 193/3/3
f 202/1/3 195/1/3 194/1/3
f 202/3/3 194/3/3 201/3/3
f 202/1/3 196/1/3 195/1/3
f 203/1/3 189/1/3 196/1/3
f 203/1/3 196/1/3 202/1/3
f 203/2/3 197/2/3 189/2/3
f 203/2/3 198/2/3 197/2/3
f 204/1/3 199/1/3 198/1/3
f 204/2/3 198/2/3 203/2/3
f 205/1/3 199/1/3 204/1/3
f 206/3/4 207/3/4 213/3/4
f 207/1/4 208/1/4 213/1/4
f 208/2/4 209/2/4 214/2/4
f 213/1/4 208/1/4 214/1/4
f 211/3/4 212/3/4 215/3/4
f 215/3/4 212/3/4 216/3/4
f 206/3/4 213/3/4 217/3/4
f 213/2/4 214/2/4 217/2/4
f 214/2/4 209/2/4 218/2/4
f 217/2/4 214/2/4 218/2/4
f 210/2/4 211/2/4 219/2/4
f 209/1/4 210/1/4 219/1/4
f 211/3/4 215/3/4 220/3/4
f 219/2/4 211/2/4 220/2/4
f 220/3/4 215/3/4 221/3/4
f 215/1/4 216/1/4 222/1/4
f 221/3/4 215/3/4 222/3/4
f 222/1/4 216/1/4 223/1/4
f 206/3/4 217/3/4 224/3/4
f 217/3/4 218/3/4 224/3/4
f 224/3/4 218/3/4 225/3/4
f 218/2/4 209/2/4 226/2/4
f 225/3/4 218/3/4 226/3/4
f 209/1/4 219/1/4 227/1/4
f 226/2/4 209/2/4 227/2/4
f 220/3/4 221/3/4 228/3/4
f 227/1/4 219/1/4 228/1/4
f 219/3/4 220/3/4 228/3/4
f 228/3/4 221/3/4 229/3/4
f 221/2/4 222/2/4 230/2/4
f 229/3/4 221/3/4 230/3/4
f 222/3/4 223/3/4 231/3/4
f 230/2/4 222/2/4 231/2/4
f 231/3/4 223/3/4 232/3/4
f 224/1/4 225/1/4 233/1/4
f 226/3/4 227/3/4 233/3/4
f 225/3/4 226/3/4 233/3/4
f 228/3/4 229/3/4 233/3/4
f 227/3/4 228/3/4 233/3/4
f 233/3/4 229/3/4 234/3/4
f 234/3/4 229/3/4 235/3/4
f 229/2/4 230/2/4 236/2/4
f 235/3/4 229/3/4 236/3/4
f 230/2/4 231/2/4 236/2/4
f 236/2/4 231/2/4 237/2/4
f 231/1/4 232/1/4 238/1/4
f 237/2/4 231/2/4 238/2/4
f 238/1/4 232/1/4 239/1/4
f 234/3/4 235/3/4 240/3/4
f 235/1/4 236/1/4 240/1/4
f 236/2/4 237/2/4 241/2/4
f 240/1/4 236/1/4 241/1/4
f 238/3/4 239/3/4 242/3/4
f 241/2/4 237/2/4 242/2/4
f 237/3/4 238/3/4 242/3/4
f 233/2/4 234/2/4 243/2/4
f 224/1/4 233/1/4 243/1/4
f 234/3/4 240/3/4 244/3/4
f 243/2/4 234/2/4 244/2/4
f 240/2/4 241/2/4 245/2/4
f 244/3/4 240/3/4 245/3/4
f 241/1/4 242/1/4 246/1/4
f 245/2/4 241/2/4 246/2/4
f 242/3/4 239/3/4 247/3/4
f 246/1/4 242/1/4 247/1/4
f 247/3/4 239/3/4 248/3/4
f 224/1/4 243/1/4 249/1/4
f 245/3/4 246/3/4 250/3/4
f 249/1/4 243/1/4 250/1/4
f 244/3/4 245/3/4 250/3/4
f 243/3/4 244/3/4 250/3/4
f 250/3/4 246/3/4 251/3/4
f 251/3/4 246/3/4 252/3/4
f 252/3/4 246/3/4 253/3/4
f 247/1/4 248/1/4 254/1/4
f 253/3/4 246/3/4 254/3/4
f 246/1/4 247/1/4 254/1/4
f 254/1/4 248/1/4 255/1/4
f 255/1/4 248/1/4 256/1/4
f 256/1/4 248/1/4 257/1/4
f 249/3/4 250/3/4 258/3/4
f 250/3/4 251/3/4 258/3/4
f 251/1/4 252/1/4 259/1/4
f 258/3/4 251/3/4 259/3/4
f 252/2/4 253/2/4 260/2/4
f 259/1/4 252/1/4 260/1/4
f 253/3/4 254/3/4 261/3/4
f 260/2/4 253/2/4 261/2/4
f 254/3/4 255/3/4 261/3/4
f 261/3/4 255/3/4 262/3/4
f 255/2/4 256/2/4 263/2/4
f 262/3/4 255/3/4 263/3/4
f 256/3/4 257/3/4 264/3/4
f 263/2/4 256/2/4 264/2/4
f 264/3/4 257/3/4 265/3/4
f 258/2/4 259/2/4 266/2/4
f 259/1/4 260/1/4 266/1/4
f 260/1/4 261/1/4 266/1/4
f 266/1/4 261/1/4 267/1/4
f 261/2/4 262/2/4 268/2/4
f 267/1/4 261/1/4 268/1/4
f 262/3/4 263/3/4 269/3/4
f 268/2/4 262/2/4 269/2/4
f 263/3/4 264/3/4 269/3/4
f 264/1/4 265/1/4 270/1/4
f 269/3/4 264/3/4 270/3/4
f 270/1/4 265/1/4 271/1/4
f 249/3/4 258/3/4 272/3/4
f 266/2/4 267/2/4 273/2/4
f 272/3/4 258/3/4 273/3/4
f 258/2/4 266/2/4 273/2/4
f 267/1/4 268/1/4 274/1/4
f 273/2/4 267/2/4 274/2/4
f 268/1/4 269/1/4 274/1/4
f 269/3/4 270/3/4 275/3/4
f 274/1/4 269/1/4 275/1/4
f 270/3/4 271/3/4 275/3/4
f 275/3/4 271/3/4 276/3/4
f 283/1/5 278/1/5 277/1/5
f 283/3/5 279/3/5 278/3/5
f 284/3/5 279/3/5 283/3/5
f 285/3/5 279/3/5 284/3/5
f 286/1/5 280/1/5 279/1/5
f 286/3/5 279/3/5 285/3/5
f 287/1/5 280/1/5 286/1/5
f 288/3/5 281/3/5 280/3/5
f 289/3/5 281/3/5 288/3/5
f 290/1/5 282/1/5 281/1/5
f 290/3/5 281/3/5 289/3/5
f 291/1/5 283/1/5 277/1/5
f 291/1/5 284/1/5 283/1/5
f 292/1/5 284/1/5 291/1/5
f 293/2/5 285/2/5 284/2/5
f 293/1/5 284/1/5 292/1/5
f 294/3/5 286/3/5 285/3/5
f 294/2/5 285/2/5 293/2/5
f 295/2/5 287/2/5 286/2/5
f 295/3/5 286/3/5 294/3/5
f 296/1/5 280/1/5 287/1/5
f 296/2/5 287/2/5 295/2/5
f 297/1/5 289/1/5 288/1/5
f 297/3/5 288/3/5 280/3/5
f 298/2/5 290/2/5 289/2/5
f 298/1/5 289/1/5 297/1/5
f 299/1/5 282/1/5 290/1/5
f 299/2/5 290/2/5 298/2/5
f 300/1/5 282/1/5 299/1/5
f 301/3/5 292/3/5 291/3/5
f 301/1/5 293/1/5 292/1/5
f 302/3/5 295/3/5 294/3/5
f 302/1/5 293/1/5 301/1/5
f 302/3/5 294/3/5 293/3/5
f 303/3/5 295/3/5 302/3/5
f 304/1/5 296/1/5 295/1/5
f 304/3/5 295/3/5 303/3/5
f 305/1/5 280/1/5 296/1/5
f 305/1/5 296/1/5 304/1/5
f 306/3/5 298/3/5 297/3/5
f 306/1/5 280/1/5 305/1/5
f 306/3/5 297/3/5 280/3/5
f 307/3/5 298/3/5 306/3/5
f 308/2/5 299/2/5 298/2/5
f 308/3/5 298/3/5 307/3/5
f 309/3/5 300/3/5 299/3/5
f 309/2/5 299/2/5 308/2/5
f 310/3/5 302/3/5 301/3/5
f 310/3/5 303/3/5 302/3/5
f 311/1/5 304/1/5 303/1/5
f 311/3/5 303/3/5 310/3/5
f 311/1/5 305/1/5 304/1/5
f 312/2/5 306/2/5 305/2/5
f 312/1/5 305/1/5 311/1/5
f 313/1/5 307/1/5 306/1/5
f 313/2/5 306/2/5 312/2/5
f 314/3/5 308/3/5 307/3/5
f 314/1/5 307/1/5 313/1/5
f 314/3/5 309/3/5 308/3/5
f 315/3/5 309/3/5 314/3/5
f 316/3/5 310/3/5 301/3/5
f 316/1/5 311/1/5 310/1/5
f 316/1/5 313/1/5 312/1/5
f 316/1/5 312/1/5 311/1/5
f 317/1/5 313/1/5 316/1/5
f 318/2/5 314/2/5 313/2/5
f 318/1/5 313/1/5 317/1/5
f 319/1/5 315/1/5 314/1/5
f 319/2/5 314/2/5 318/2/5
f 320/3/5 301/3/5 291/3/5
f 320/3/5 316/3/5 301/3/5
f 321/2/5 317/2/5 316/2/5
f 321/3/5 316/3/5 320/3/5
f 322/2/5 317/2/5 321/2/5
f 323/1/5 318/1/5 317/1/5
f 323/2/5 317/2/5 322/2/5
f 323/1/5 319/1/5 318/1/5
f 324/1/5 315/1/5 319/1/5
f 324/1/5 319/1/5 323/1/5
f 325/3/5 309/3/5 315/3/5
f 325/1/5 315/1/5 324/1/5
f 326/3/5 300/3/5 309/3/5
f 326/3/5 309/3/5 325/3/5
f 327/2/5 322/2/5 321/2/5
f 327/3/5 320/3/5 291/3/5
f 327/2/5 321/2/5 320/2/5
f 328/2/5 322/2/5 327/2/5
f 329/1/5 324/1/5 323/1/5
f 329/2/5 322/2/5 328/2/5
f 329/1/5 323/1/5 322/1/5
f 330/1/5 324/1/5 329/1/5
f 331/1/5 324/1/5 330/1/5
f 332/2/5 325/2/5 324/2/5
f 332/1/5 324/1/5 331/1/5
f 332/2/5 326/2/5 325/2/5
f 333/2/5 326/2/5 332/2/5
f 334/3/5 300/3/5 326/3/5
f 334/2/5 326/2/5 333/2/5
f 335/3/5 328/3/5 327/3/5
f 335/1/5 329/1/5 328/1/5
f 336/2/5 330/2/5 329/2/5
f 336/1/5 329/1/5 335/1/5
f 337/1/5 331/1/5 330/1/5
f 338/2/5 332/2/5 331/2/5
f 338/1/5 331/1/5 337/1/5
f 339/1/5 333/1/5 332/1/5
f 339/2/5 332/2/5 338/2/5
f 340/3/5 334/3/5 333/3/5
f 340/1/5 333/1/5 339/1/5
f 341/3/5 335/3/5 327/3/5
f 341/2/5 336/2/5 335/2/5
f 342/2/5 330/2/5 336/2/5
f 342/2/5 336/2/5 341/2/5
f 343/1/5 337/1/5 330/1/5
f 343/2/5 330/2/5 342/2/5
f 344/2/5 338/2/5 337/2/5
f 344/1/5 337/1/5 343/1/5
f 344/2/5 339/2/5 338/2/5
f 344/2/5 340/2/5 339/2/5
f 345/2/5 340/2/5 344/2/5
f 346/3/5 334/3/5 340/3/5
f 346/2/5 340/2/5 345/2/5
f 347/3/5 327/3/5 291/3/5
f 347/3/5 341/3/5 327/3/5
f 347/3/5 342/3/5 341/3/5
f 348/1/5 343/1/5 342/1/5
f 348/3/5 342/3/5 347/3/5
f 348/1/5 345/1/5 344/1/5
f 348/1/5 344/1/5 343/1/5
f 349/3/5 346/3/5 345/3/5
f 349/1/5 345/1/5 348/1/5
f 350/3/5 300/3/5 334/3/5
f 350/3/5 346/3/5 349/3/5
f 350/3/5 334/3/5 346/3/5
f 351/1/6 352/1/6 357/1/6
f 352/3/6 353/3/6 357/3/6
f 357/3/6 353/3/6 358/3/6
f 358/3/6 353/3/6 359/3/6
f 353/1/6 354/1/6 360/1/6
f 359/3/6 353/3/6 360/3/6
f 360/1/6 354/1/6 361/1/6
f 354/3/6 355/3/6 362/3/6
f 361/1/6 354/1/6 362/1/6
f 362/3/6 355/3/6 363/3/6
f 363/3/6 355/3/6 364/3/6
f 355/1/6 356/1/6 365/1/6
f 364/3/6 355/3/6 365/3/6
f 360/2/6 361/2/6 366/2/6
f 359/2/6 360/2/6 366/2/6
f 361/1/6 362/1/6 367/1/6
f 366/2/6 361/2/6 367/2/6
f 362/1/6 363/1/6 367/1/6
f 367/1/6 363/1/6 368/1/6
f 363/3/6 364/3/6 369/3/6
f 368/1/6 363/1/6 369/1/6
f 364/1/6 365/1/6 370/1/6
f 369/3/6 364/3/6 370/3/6
f 365/1/6 356/1/6 371/1/6
f 370/1/6 365/1/6 371/1/6
f 351/1/6 357/1/6 372/1/6
f 357/1/6 358/1/6 372/1/6
f 358/3/6 359/3/6 373/3/6
f 372/1/6 358/1/6 373/1/6
f 359/2/6 366/2/6 374/2/6
f 373/3/6 359/3/6 374/3/6
f 367/1/6 368/1/6 375/1/6
f 374/2/6 366/2/6 375/2/6
f 366/1/6 367/1/6 375/1/6
f 375/1/6 368/1/6 376/1/6
f 368/2/6 369/2/6 377/2/6
f 376/1/6 368/1/6 377/1/6
f 369/3/6 370/3/6 378/3/6
f 377/2/6 369/2/6 378/2/6
f 370/2/6 371/2/6 379/2/6
f 378/3/6 370/3/6 379/3/6
f 371/1/6 356/1/6 380/1/6
f 379/2/6 371/2/6 380/2/6
f 373/3/6 374/3/6 381/3/6
f 372/3/6 373/3/6 381/3/6
f 375/1/6 376/1/6 382/1/6
f 381/3/6 374/3/6 382/3/6
f 374/1/6 375/1/6 382/1/6
f 382/1/6 376/1/6 383/1/6
f 376/2/6 377/2/6 384/2/6
f 383/1/6 376/1/6 384/1/6
f 377/1/6 378/1/6 385/1/6
f 384/2/6 377/2/6 385/2/6
f 378/3/6 379/3/6 386/3/6
f 385/1/6 378/1/6 386/1/6
f 379/3/6 380/3/6 386/3/6
f 386/3/6 380/3/6 387/3/6
f 382/1/6 383/1/6 388/1/6
f 383/2/6 384/2/6 388/2/6
f 381/1/6 382/1/6 388/1/6
f 384/1/6 385/1/6 389/1/6
f 388/2/6 384/2/6 389/2/6
f 385/1/6 386/1/6 389/1/6
f 389/1/6 386/1/6 390/1/6
f 386/2/6 387/2/6 391/2/6
f 390/1/6 386/1/6 391/1/6
f 351/1/6 372/1/6 392/1/6
f 372/3/6 381/3/6 393/3/6
f 392/1/6 372/1/6 393/1/6
f 381/1/6 388/1/6 394/1/6
f 389/3/6 390/3/6 395/3/6
f 394/1/6 388/1/6 395/1/6
f 388/3/6 389/3/6 395/3/6
f 390/2/6 391/2/6 396/2/6
f 395/3/6 390/3/6 396/3/6
f 391/2/6 387/2/6 397/2/6
f 396/2/6 391/2/6 397/2/6
f 387/3/6 380/3/6 398/3/6
f 397/2/6 387/2/6 398/2/6
f 380/1/6 356/1/6 399/1/6
f 398/3/6 380/3/6 399/3/6
f 399/1/6 356/1/6 400/1/6
f 393/3/6 381/3/6 401/3/6
f 392/3/6 393/3/6 401/3/6
f 381/1/6 394/1/6 402/1/6
f 401/3/6 381/3/6 402/3/6
f 396/3/6 397/3/6 403/3/6
f 402/1/6 394/1/6 403/1/6
f 395/3/6 396/3/6 403/3/6
f 394/3/6 395/3/6 403/3/6
f 403/3/6 397/3/6 404/3/6
f 404/3/6 397/3/6 405/3/6
f 405/3/6 397/3/6 406/3/6
f 397/1/6 398/1/6 407/1/6
f 406/3/6 397/3/6 407/3/6
f 398/3/6 399/3/6 408/3/6
f 407/1/6 398/1/6 408/1/6
f 399/3/6 400/3/6 408/3/6
f 408/3/6 400/3/6 409/3/6
f 401/2/6 402/2/6 410/2/6
f 392/3/6 401/3/6 410/3/6
f 402/2/6 403/2/6 410/2/6
f 410/2/6 403/2/6 411/2/6
f 403/3/6 404/3/6 412/3/6
f 411/2/6 403/2/6 412/2/6
f 404/2/6 405/2/6 413/2/6
f 412/3/6 404/3/6 413/3/6
f 405/1/6 406/1/6 414/1/6
f 413/2/6 405/2/6 414/2/6
f 406/3/6 407/3/6 415/3/6
f 414/1/6 406/1/6 415/1/6
f 407/2/6 408/2/6 416/2/6
f 415/3/6 407/3/6 416/3/6
f 408/1/6 409/1/6 417/1/6
f 416/2/6 408/2/6 417/2/6
f 412/2/6 413/2/6 418/2/6
f 411/3/6 412/3/6 418/3/6
f 413/1/6 414/1/6 419/1/6
f 418/2/6 413/2/6 419/2/6
f 415/2/6 416/2/6 420/2/6
f 419/1/6 414/1/6 420/1/6
f 414/2/6 415/2/6 420/2/6
f 420/2/6 416/2/6 421/2/6
f 416/3/6 417/3/6 422/3/6
f 421/2/6 416/2/6 422/2/6
f 392/3/6 410/3/6 423/3/6
f 410/1/6 411/1/6 424/1/6
f 423/3/6 410/3/6 424/3/6
f 411/3/6 418/3/6 425/3/6
f 424/1/6 411/1/6 425/1/6
f 418/1/6 419/1/6 426/1/6
f 425/3/6 418/3/6 426/3/6
f 420/3/6 421/3/6 427/3/6
f 426/1/6 419/1/6 427/1/6
f 419/3/6 420/3/6 427/3/6
f 421/1/6 422/1/6 428/1/6
f 427/3/6 421/3/6 428/3/6
f 422/3/6 417/3/6 429/3/6
f 428/1/6 422/1/6 429/1/6
f 417/1/6 409/1/6 430/1/6
f 429/3/6 417/3/6 430/3/6
f 409/3/6 400/3/6 431/3/6
f 430/1/6 409/1/6 431/1/6
f 431/3/6 400/3/6 432/3/6
